<svg width="28" height="32" viewBox="0 0 28 32" fill="none" xmlns="http://www.w3.org/2000/svg">
<path d="M6.22222 14.4H9.33333V17.6H6.22222V14.4ZM28 6.4V28.8C28 30.56 26.6 32 24.8889 32H3.11111C1.38444 32 0 30.56 0 28.8L0.0155555 6.4C0.0155555 4.64 1.38444 3.2 3.11111 3.2H4.66667V0H7.77778V3.2H20.2222V0H23.3333V3.2H24.8889C26.6 3.2 28 4.64 28 6.4ZM3.11111 9.6H24.8889V6.4H3.11111V9.6ZM24.8889 28.8V12.8H3.11111V28.8H24.8889ZM18.6667 17.6H21.7778V14.4H18.6667V17.6ZM12.4444 17.6H15.5556V14.4H12.4444V17.6Z" fill="black"/>
</svg>
