<svg width="22" height="21" viewBox="0 0 22 21" fill="none" xmlns="http://www.w3.org/2000/svg">
<path d="M1.56236 20.6562C1.45212 20.6569 1.34298 20.6342 1.24212 20.5897C1.14126 20.5452 1.05097 20.4798 0.977179 20.3979C0.903387 20.316 0.847766 20.2194 0.813973 20.1145C0.780181 20.0095 0.768981 19.8986 0.78111 19.789L1.38267 14.3203C1.40409 14.1455 1.48392 13.9831 1.60923 13.8594L14.3905 1.07812C14.6227 0.84544 14.8985 0.660844 15.2022 0.534895C15.5058 0.408946 15.8313 0.344116 16.16 0.344116C16.4887 0.344116 16.8142 0.408946 17.1179 0.534895C17.4215 0.660844 17.6973 0.84544 17.9295 1.07812L20.3592 3.5078C20.5919 3.74001 20.7765 4.01583 20.9025 4.31947C21.0284 4.62311 21.0932 4.94861 21.0932 5.27733C21.0932 5.60606 21.0284 5.93156 20.9025 6.23519C20.7765 6.53883 20.5919 6.81465 20.3592 7.04686L7.5858 19.8203C7.46208 19.9456 7.29965 20.0254 7.12486 20.0469L1.65611 20.6484L1.56236 20.6562ZM2.91392 14.7578L2.44517 18.9922L6.67955 18.5234L19.2577 5.9453C19.3451 5.8582 19.4144 5.75471 19.4617 5.64076C19.5091 5.5268 19.5334 5.40463 19.5334 5.28124C19.5334 5.15785 19.5091 5.03568 19.4617 4.92172C19.4144 4.80777 19.3451 4.70427 19.2577 4.61718L16.8202 2.17968C16.7331 2.09228 16.6296 2.02293 16.5156 1.97561C16.4017 1.9283 16.2795 1.90394 16.1561 1.90394C16.0327 1.90394 15.9105 1.9283 15.7966 1.97561C15.6826 2.02293 15.5791 2.09228 15.492 2.17968L2.91392 14.7578Z" fill="#EDBC4A"/>
<path d="M17.9685 9.10155C17.8657 9.10215 17.7638 9.08244 17.6686 9.04356C17.5734 9.00468 17.4868 8.9474 17.4138 8.87499L12.5623 4.0078C12.4894 3.93496 12.4317 3.84849 12.3922 3.75331C12.3528 3.65814 12.3325 3.55613 12.3325 3.45312C12.3325 3.3501 12.3528 3.2481 12.3922 3.15292C12.4317 3.05775 12.4894 2.97127 12.5623 2.89843C12.6351 2.82559 12.7216 2.76781 12.8168 2.72838C12.9119 2.68896 13.014 2.66867 13.117 2.66867C13.22 2.66867 13.322 2.68896 13.4172 2.72838C13.5123 2.76781 13.5988 2.82559 13.6717 2.89843L18.5388 7.76562C18.6121 7.83824 18.6702 7.92465 18.7098 8.01985C18.7495 8.11506 18.7699 8.21717 18.7699 8.3203C18.7699 8.42344 18.7495 8.52555 18.7098 8.62076C18.6702 8.71596 18.6121 8.80236 18.5388 8.87499C18.464 8.9493 18.3749 9.00768 18.2769 9.04661C18.1788 9.08555 18.074 9.10424 17.9685 9.10155Z" fill="#EDBC4A"/>
<path d="M12.5666 7.76847L6.48438 13.8507L7.58923 14.9555L13.6715 8.87332L12.5666 7.76847Z" fill="#EDBC4A"/>
</svg>
