<svg width="26" height="32" viewBox="0 0 26 32" fill="none" xmlns="http://www.w3.org/2000/svg">
<path d="M23.4 5.33333H2.6C1.17 5.33333 0 6.53333 0 8V24C0 25.4667 1.17 26.6667 2.6 26.6667H23.4C24.83 26.6667 26 25.4667 26 24V8C26 6.53333 24.83 5.33333 23.4 5.33333ZM23.4 24H2.6V8H23.4V24ZM2.6 0H23.4V2.66667H2.6V0ZM2.6 29.3333H23.4V32H2.6V29.3333ZM13 16C14.794 16 16.25 14.5067 16.25 12.6667C16.25 10.8267 14.794 9.33333 13 9.33333C11.206 9.33333 9.75 10.8267 9.75 12.6667C9.75 14.5067 11.206 16 13 16ZM13 11.3333C13.715 11.3333 14.3 11.9333 14.3 12.6667C14.3 13.4 13.715 14 13 14C12.285 14 11.7 13.4 11.7 12.6667C11.7 11.9333 12.285 11.3333 13 11.3333ZM19.5 21.32C19.5 18.5333 15.197 17.3333 13 17.3333C10.803 17.3333 6.5 18.5333 6.5 21.32V22.6667H19.5V21.32ZM8.853 20.6667C9.646 19.9733 11.492 19.3333 13 19.3333C14.521 19.3333 16.367 19.9733 17.16 20.6667H8.853Z" fill="black"/>
</svg>
