<svg width="21" height="25" viewBox="0 0 21 25" fill="none" xmlns="http://www.w3.org/2000/svg">
<path d="M16.75 24.2188H4.25C3.6284 24.2188 3.03226 23.9718 2.59272 23.5323C2.15318 23.0927 1.90625 22.4966 1.90625 21.875V7.03125C1.90625 6.82405 1.98856 6.62534 2.13507 6.47882C2.28159 6.33231 2.4803 6.25 2.6875 6.25C2.8947 6.25 3.09341 6.33231 3.23993 6.47882C3.38644 6.62534 3.46875 6.82405 3.46875 7.03125V21.875C3.46875 22.0822 3.55106 22.2809 3.69757 22.4274C3.84409 22.5739 4.0428 22.6562 4.25 22.6562H16.75C16.9572 22.6562 17.1559 22.5739 17.3024 22.4274C17.4489 22.2809 17.5312 22.0822 17.5312 21.875V7.03125C17.5312 6.82405 17.6136 6.62534 17.7601 6.47882C17.9066 6.33231 18.1053 6.25 18.3125 6.25C18.5197 6.25 18.7184 6.33231 18.8649 6.47882C19.0114 6.62534 19.0938 6.82405 19.0938 7.03125V21.875C19.0938 22.4966 18.8468 23.0927 18.4073 23.5323C17.9677 23.9718 17.3716 24.2188 16.75 24.2188Z" fill="#FF0000"/>
<path d="M19.875 5.46875H1.125C0.9178 5.46875 0.719086 5.38644 0.572573 5.23993C0.42606 5.09341 0.34375 4.8947 0.34375 4.6875C0.34375 4.4803 0.42606 4.28159 0.572573 4.13507C0.719086 3.98856 0.9178 3.90625 1.125 3.90625H19.875C20.0822 3.90625 20.2809 3.98856 20.4274 4.13507C20.5739 4.28159 20.6562 4.4803 20.6562 4.6875C20.6562 4.8947 20.5739 5.09341 20.4274 5.23993C20.2809 5.38644 20.0822 5.46875 19.875 5.46875Z" fill="#FF0000"/>
<path d="M13.625 5.46875C13.4178 5.46875 13.2191 5.38644 13.0726 5.23993C12.9261 5.09341 12.8438 4.8947 12.8438 4.6875V2.34375H8.15625V4.6875C8.15625 4.8947 8.07394 5.09341 7.92743 5.23993C7.78091 5.38644 7.5822 5.46875 7.375 5.46875C7.1678 5.46875 6.96909 5.38644 6.82257 5.23993C6.67606 5.09341 6.59375 4.8947 6.59375 4.6875V1.5625C6.59375 1.3553 6.67606 1.15659 6.82257 1.01007C6.96909 0.86356 7.1678 0.78125 7.375 0.78125H13.625C13.8322 0.78125 14.0309 0.86356 14.1774 1.01007C14.3239 1.15659 14.4062 1.3553 14.4062 1.5625V4.6875C14.4062 4.8947 14.3239 5.09341 14.1774 5.23993C14.0309 5.38644 13.8322 5.46875 13.625 5.46875Z" fill="#FF0000"/>
<path d="M10.5 20.3125C10.2928 20.3125 10.0941 20.2302 9.94757 20.0837C9.80106 19.9372 9.71875 19.7385 9.71875 19.5312V8.59375C9.71875 8.38655 9.80106 8.18784 9.94757 8.04132C10.0941 7.89481 10.2928 7.8125 10.5 7.8125C10.7072 7.8125 10.9059 7.89481 11.0524 8.04132C11.1989 8.18784 11.2812 8.38655 11.2812 8.59375V19.5312C11.2812 19.7385 11.1989 19.9372 11.0524 20.0837C10.9059 20.2302 10.7072 20.3125 10.5 20.3125Z" fill="#FF0000"/>
<path d="M14.4062 18.75C14.199 18.75 14.0003 18.6677 13.8538 18.5212C13.7073 18.3747 13.625 18.176 13.625 17.9688V10.1562C13.625 9.94905 13.7073 9.75034 13.8538 9.60382C14.0003 9.45731 14.199 9.375 14.4062 9.375C14.6135 9.375 14.8122 9.45731 14.9587 9.60382C15.1052 9.75034 15.1875 9.94905 15.1875 10.1562V17.9688C15.1875 18.176 15.1052 18.3747 14.9587 18.5212C14.8122 18.6677 14.6135 18.75 14.4062 18.75Z" fill="#FF0000"/>
<path d="M6.59375 18.75C6.38655 18.75 6.18784 18.6677 6.04132 18.5212C5.89481 18.3747 5.8125 18.176 5.8125 17.9688V10.1562C5.8125 9.94905 5.89481 9.75034 6.04132 9.60382C6.18784 9.45731 6.38655 9.375 6.59375 9.375C6.80095 9.375 6.99966 9.45731 7.14618 9.60382C7.29269 9.75034 7.375 9.94905 7.375 10.1562V17.9688C7.375 18.176 7.29269 18.3747 7.14618 18.5212C6.99966 18.6677 6.80095 18.75 6.59375 18.75Z" fill="#FF0000"/>
</svg>
