<svg width="29" height="29" viewBox="0 0 29 29" fill="none" xmlns="http://www.w3.org/2000/svg">
<path d="M15.95 0V4.40451C20.8655 5.11679 24.65 9.33233 24.65 14.4637C24.65 15.7719 24.389 17.0075 23.954 18.1559L27.724 20.3799C28.536 18.5774 29 16.5714 29 14.4637C29 6.93383 23.2725 0.726817 15.95 0ZM14.5 24.6391C8.8885 24.6391 4.35 20.0892 4.35 14.4637C4.35 9.33233 8.1345 5.11679 13.05 4.40451V0C5.713 0.726817 0 6.9193 0 14.4637C0 22.4877 6.4815 29 14.4855 29C19.285 29 23.5335 26.6596 26.1725 23.0546L22.4025 20.8306C20.5465 23.1564 17.7045 24.6391 14.5 24.6391Z" fill="black"/>
</svg>
